<?xml version="1.0" standalone="no"?>
<!DOCTYPE svg PUBLIC "-//W3C//DTD SVG 20010904//EN"
 "http://www.w3.org/TR/2001/REC-SVG-20010904/DTD/svg10.dtd">
<svg version="1.0" xmlns="http://www.w3.org/2000/svg"
 width="500.000000pt" height="121.000000pt" viewBox="0 0 500.000000 121.000000"
 preserveAspectRatio="xMidYMid meet">

<g transform="translate(0.000000,121.000000) scale(0.100000,-0.100000)"
fill="#000000" stroke="none">
<path d="M60 1161 c0 -5 14 -14 30 -21 17 -7 35 -21 40 -31 6 -10 10 -102 10
-205 0 -217 7 -252 65 -310 99 -98 307 -87 389 21 46 60 56 107 63 295 3 96
10 185 14 198 5 13 22 28 39 33 55 20 31 29 -70 29 -100 0 -126 -10 -76 -30
36 -13 46 -63 46 -235 0 -160 -7 -203 -43 -256 -53 -78 -169 -99 -259 -47 -77
46 -91 88 -96 289 -5 191 2 230 48 249 16 7 27 16 24 21 -7 12 -224 12 -224 0z"/>
<path d="M2778 1158 c-17 -14 -88 -148 -88 -167 0 -25 22 -7 85 66 68 79 76
97 49 107 -22 8 -28 8 -46 -6z"/>
<path d="M1279 1121 c-20 -16 -22 -23 -14 -47 12 -34 54 -44 79 -19 21 22 20
41 -4 65 -25 25 -32 25 -61 1z"/>
<path d="M2292 949 c-52 -50 -58 -69 -22 -69 17 0 19 -11 22 -150 3 -147 4
-150 30 -176 32 -33 91 -36 139 -8 51 30 47 41 -14 36 -80 -6 -87 8 -87 170
l0 128 71 0 c67 0 70 1 67 23 -3 20 -9 22 -70 25 l-68 3 0 34 c0 19 -3 35 -7
35 -5 0 -32 -23 -61 -51z"/>
<path d="M1283 926 c-34 -17 -63 -33 -63 -36 0 -3 10 -10 22 -15 12 -6 25 -21
29 -35 10 -35 10 -242 1 -257 -4 -6 -21 -18 -37 -25 -30 -13 -30 -13 23 -16
28 -2 76 -2 105 0 l52 4 -33 13 c-20 8 -34 22 -39 39 -3 14 -3 101 0 194 3 92
5 167 4 167 -1 -1 -30 -15 -64 -33z"/>
<path d="M830 930 c-14 -11 -29 -20 -35 -20 -5 0 -17 -5 -25 -10 -12 -8 -11
-12 8 -30 21 -20 22 -29 22 -156 l0 -136 -30 -11 c-52 -20 -33 -27 65 -27 98
0 117 7 65 27 l-30 11 0 136 0 136 33 20 c47 29 111 27 142 -5 24 -23 25 -29
25 -154 l0 -130 -30 -16 c-16 -9 -30 -18 -30 -20 0 -3 43 -5 95 -5 98 0 117 7
65 27 l-30 11 0 132 c0 152 -12 192 -65 217 -42 20 -111 10 -160 -23 -20 -13
-39 -24 -42 -24 -3 0 -3 16 0 35 7 41 -5 45 -43 15z"/>
<path d="M3020 925 c-24 -14 -49 -27 -55 -29 -5 -3 0 -13 13 -22 21 -16 22
-23 22 -153 0 -141 -5 -161 -42 -161 -10 0 -18 -4 -18 -10 0 -6 38 -10 95 -10
98 0 117 7 65 27 l-30 11 0 136 0 136 33 20 c47 29 111 27 142 -5 24 -23 25
-29 25 -154 l0 -130 -30 -16 c-16 -9 -30 -18 -30 -20 0 -3 43 -5 95 -5 98 0
117 7 65 27 l-30 11 0 132 c0 152 -12 192 -65 217 -42 20 -111 10 -160 -23
-20 -13 -38 -24 -42 -24 -3 0 -2 16 1 35 8 41 5 42 -54 10z"/>
<path d="M3925 922 c-27 -15 -51 -28 -53 -28 -2 -1 8 -13 22 -27 25 -25 26
-30 26 -157 l0 -131 -37 -17 -38 -17 52 -3 c29 -2 77 -2 105 0 l53 4 -32 13
-33 13 0 138 c0 138 0 139 26 159 40 32 106 29 133 -5 19 -24 21 -40 21 -155
l0 -128 -32 -18 -33 -18 53 -3 c28 -2 76 -2 105 0 l52 3 -37 17 -38 17 0 126
c0 126 0 127 29 156 24 23 38 29 75 29 36 0 48 -5 65 -26 19 -24 21 -40 21
-156 l0 -130 -30 -11 c-52 -20 -33 -27 65 -27 98 0 117 7 65 27 l-30 11 0 122
c0 137 -12 192 -48 221 -40 31 -121 19 -178 -26 l-28 -22 -32 33 c-41 45 -90
46 -168 5 l-56 -30 0 35 c0 18 -3 34 -7 33 -5 0 -30 -12 -58 -27z"/>
<path d="M1540 919 c-78 -35 -144 -119 -94 -119 29 0 54 21 54 45 0 43 72 62
103 27 11 -12 17 -36 17 -70 0 -59 -7 -66 -100 -102 -99 -38 -122 -91 -65
-149 30 -30 82 -30 131 0 l35 21 24 -22 c13 -12 35 -22 49 -22 32 -1 76 28 76
48 0 16 -2 16 -46 -3 -6 -2 -19 3 -27 12 -14 13 -15 34 -10 145 7 143 -2 185
-44 201 -35 13 -52 11 -103 -12z m80 -259 c0 -44 -34 -90 -65 -90 -44 0 -70
42 -47 76 11 18 75 54 95 54 13 0 17 -9 17 -40z"/>
<path d="M1821 929 c-60 -12 -66 -21 -31 -47 l30 -23 0 -133 c0 -119 2 -136
20 -159 46 -58 159 -52 234 12 18 15 19 15 13 -21 -3 -21 -4 -38 -1 -38 6 0
124 39 144 47 9 4 -1 9 -25 12 l-40 6 0 178 0 179 -26 -6 c-14 -3 -50 -8 -78
-12 -58 -8 -62 -21 -11 -38 l35 -11 3 -120 c3 -120 3 -121 -25 -147 -16 -16
-45 -30 -69 -33 -34 -6 -45 -3 -72 20 l-32 27 0 159 c0 121 -3 159 -12 158 -7
-1 -33 -5 -57 -10z"/>
<path d="M2630 913 c-169 -89 -155 -333 20 -379 137 -35 255 50 267 194 4 47
1 65 -19 102 -33 62 -90 100 -159 106 -46 5 -62 2 -109 -23z m150 -41 c87 -87
79 -281 -14 -312 -96 -31 -176 54 -176 190 0 106 38 160 113 160 32 0 46 -7
77 -38z"/>
<path d="M3566 925 c-117 -41 -176 -192 -118 -302 57 -109 232 -131 320 -40
41 42 62 95 62 156 0 61 -13 97 -48 135 -56 60 -138 79 -216 51z m104 -30 c61
-31 96 -132 80 -230 -11 -67 -29 -91 -81 -106 -73 -22 -147 43 -164 144 -25
142 63 245 165 192z"/>
<path d="M4700 919 c-78 -35 -144 -119 -94 -119 29 0 54 21 54 45 0 43 72 62
103 27 11 -12 17 -36 17 -70 0 -59 -7 -66 -100 -102 -60 -23 -100 -59 -100
-92 0 -11 15 -35 34 -54 39 -39 57 -39 130 -2 l39 19 23 -22 c13 -12 34 -21
48 -21 32 -1 76 28 76 48 0 16 -2 16 -46 -3 -6 -2 -19 3 -28 13 -15 15 -16 32
-10 145 8 142 0 179 -42 198 -34 15 -52 14 -104 -10z m80 -248 c0 -72 -45
-116 -95 -93 -45 21 -30 74 30 106 47 24 65 21 65 -13z"/>
<path d="M3603 405 c-7 -8 -13 -18 -13 -23 0 -31 -74 -190 -98 -209 l-27 -23
54 0 c53 0 54 0 37 19 -14 16 -16 26 -9 48 8 25 15 28 56 31 46 3 46 3 53 -33
5 -29 3 -39 -12 -50 -17 -13 -13 -14 41 -15 l60 0 -27 23 c-19 16 -36 53 -63
135 -20 61 -37 112 -38 112 -1 -1 -8 -7 -14 -15z m31 -122 c7 -21 4 -23 -28
-23 -41 0 -44 9 -20 66 l17 39 12 -30 c7 -16 16 -40 19 -52z"/>
<path d="M1268 398 c21 -10 22 -17 22 -118 0 -101 -1 -108 -22 -118 -19 -9 -8
-11 57 -11 128 -1 190 44 190 139 0 86 -54 120 -187 119 -67 0 -79 -2 -60 -11z
m152 -13 c56 -29 79 -123 44 -174 -23 -32 -74 -52 -110 -42 l-29 7 -3 99 c-1
54 0 105 2 112 7 18 60 17 96 -2z"/>
<path d="M1608 394 c20 -14 22 -23 22 -114 0 -91 -2 -100 -22 -114 -21 -15
-17 -16 69 -16 90 0 91 0 97 26 9 34 1 42 -14 15 -8 -17 -20 -21 -55 -21 l-45
0 0 55 c0 53 1 55 26 55 15 0 33 -8 40 -17 12 -16 13 -15 14 15 0 17 -4 32
-10 32 -5 0 -10 -4 -10 -10 0 -5 -13 -10 -30 -10 -29 0 -30 1 -30 50 l0 50 41
0 c28 0 47 -6 56 -17 14 -17 14 -17 9 0 -3 10 -6 23 -6 28 0 5 -39 9 -87 9
-82 0 -86 -1 -65 -16z"/>
<path d="M1863 396 c14 -11 17 -30 17 -114 0 -93 -2 -102 -22 -116 -21 -15
-16 -16 80 -16 81 0 102 3 102 14 0 8 3 23 6 33 6 15 3 14 -15 -4 -17 -18 -33
-23 -71 -23 l-50 0 0 110 c0 89 3 110 14 110 8 0 18 5 21 10 4 6 -14 10 -47
10 -46 -1 -51 -2 -35 -14z"/>
<path d="M2302 392 c-130 -70 -74 -242 78 -242 52 0 80 15 80 42 0 21 -1 21
-28 -5 -68 -65 -162 -5 -162 104 0 33 6 47 34 75 51 51 113 46 144 -11 10 -18
11 -17 12 11 0 25 -5 33 -22 38 -42 11 -103 5 -136 -12z"/>
<path d="M2651 393 c-5 -10 -23 -55 -41 -101 -17 -45 -43 -96 -57 -112 l-25
-30 46 0 c49 0 56 6 31 24 -13 9 -14 17 -4 44 10 29 14 32 54 32 30 0 45 -5
49 -16 11 -28 6 -57 -11 -70 -16 -12 -10 -13 41 -14 l59 0 -25 23 c-17 15 -36
59 -59 130 -19 59 -37 107 -41 107 -4 0 -11 -8 -17 -17z m19 -58 c5 -14 13
-37 16 -50 6 -23 3 -25 -30 -25 -20 0 -36 3 -36 7 0 11 32 93 37 93 2 0 8 -11
13 -25z"/>
<path d="M2851 397 c13 -10 18 -34 20 -105 5 -105 18 -128 82 -139 86 -14 127
36 127 153 0 49 5 73 17 86 15 17 14 18 -20 18 -35 0 -48 -12 -27 -25 6 -3 10
-41 10 -84 0 -64 -4 -83 -21 -105 -25 -32 -75 -35 -110 -7 -21 17 -24 30 -27
101 -4 67 -1 84 13 101 18 19 17 19 -31 19 -41 -1 -46 -3 -33 -13z"/>
<path d="M3255 395 c-104 -53 -101 -191 5 -235 37 -15 129 -8 141 11 20 32 8
40 -22 15 -39 -33 -79 -33 -118 0 -86 72 -43 214 64 214 17 0 38 -11 56 -31
l29 -31 0 26 c0 15 -8 30 -19 36 -29 15 -102 12 -136 -5z"/>
</g>
</svg>
